<?xml version="1.0" encoding="UTF-8" standalone="no"?>
<!-- Created with Inkscape (http://www.inkscape.org/) -->

<svg
   xmlns:dc="http://purl.org/dc/elements/1.1/"
   xmlns:cc="http://creativecommons.org/ns#"
   xmlns:rdf="http://www.w3.org/1999/02/22-rdf-syntax-ns#"
   xmlns:svg="http://www.w3.org/2000/svg"
   xmlns="http://www.w3.org/2000/svg"
   xmlns:sodipodi="http://sodipodi.sourceforge.net/DTD/sodipodi-0.dtd"
   xmlns:inkscape="http://www.inkscape.org/namespaces/inkscape"
   width="210mm"
   height="297mm"
   viewBox="0 0 744.09448819 1052.3622047"
   id="svg2"
   version="1.1"
   inkscape:version="0.91 r13725"
   sodipodi:docname="planet.svg">
  <defs
     id="defs4" />
  <sodipodi:namedview
     id="base"
     pagecolor="#ffffff"
     bordercolor="#666666"
     borderopacity="1.0"
     inkscape:pageopacity="0.0"
     inkscape:pageshadow="2"
     inkscape:zoom="0.35"
     inkscape:cx="-106.42857"
     inkscape:cy="520"
     inkscape:document-units="px"
     inkscape:current-layer="layer1"
     showgrid="false"
     inkscape:window-width="1855"
     inkscape:window-height="936"
     inkscape:window-x="65"
     inkscape:window-y="24"
     inkscape:window-maximized="1" />
  <metadata
     id="metadata7">
    <rdf:RDF>
      <cc:Work
         rdf:about="">
        <dc:format>image/svg+xml</dc:format>
        <dc:type
           rdf:resource="http://purl.org/dc/dcmitype/StillImage" />
        <dc:title></dc:title>
      </cc:Work>
    </rdf:RDF>
  </metadata>
  <g
     inkscape:label="Layer 1"
     inkscape:groupmode="layer"
     id="layer1">
    <rect
       style="fill:#ff00ff"
       id="rect3336"
       width="1982.8573"
       height="1091.4286"
       x="-737.14288"
       y="-16.209225" />
    <path
       style="fill:#d40000"
       id="path3338"
       sodipodi:type="arc"
       sodipodi:cx="-557.14288"
       sodipodi:cy="238.07649"
       sodipodi:rx="105.71429"
       sodipodi:ry="74.285713"
       sodipodi:start="0"
       sodipodi:end="6.2282074"
       sodipodi:open="true"
       d="m -451.4286,238.07649 a 105.71429,74.285713 0 0 1 -104.26134,74.2787 105.71429,74.285713 0 0 1 -107.12729,-72.23692 105.71429,74.285713 0 0 1 101.31662,-76.26435 105.71429,74.285713 0 0 1 109.91229,70.14056" />
    <path
       style="fill:#00ffff"
       id="path3342"
       sodipodi:type="arc"
       sodipodi:cx="528.57141"
       sodipodi:cy="-14.780652"
       sodipodi:rx="134.28572"
       sodipodi:ry="87.14286"
       sodipodi:start="0"
       sodipodi:end="3.1000383"
       d="M 662.85713,-14.780652 A 134.28572,87.14286 0 0 1 531.36129,72.3434 134.28572,87.14286 0 0 1 394.40161,-11.160529 l 134.1698,-3.620123 z" />
    <path
       style="fill:#008000"
       id="path3344"
       sodipodi:type="arc"
       sodipodi:cx="818.57141"
       sodipodi:cy="286.64792"
       sodipodi:rx="124.28571"
       sodipodi:ry="102.85714"
       sodipodi:start="0"
       sodipodi:end="6.2720746"
       d="M 942.85712,286.64792 A 124.28571,102.85714 0 0 1 818.91664,389.50466 124.28571,102.85714 0 0 1 694.28762,287.21932 124.28571,102.85714 0 0 1 817.53575,183.79435 124.28571,102.85714 0 0 1 942.84945,285.50513 l -124.27804,1.14279 z" />
  </g>
</svg>
