<?xml version="1.0" encoding="UTF-8" standalone="no"?>
<!-- Created with Inkscape (http://www.inkscape.org/) -->

<svg
   xmlns:dc="http://purl.org/dc/elements/1.1/"
   xmlns:cc="http://creativecommons.org/ns#"
   xmlns:rdf="http://www.w3.org/1999/02/22-rdf-syntax-ns#"
   xmlns:svg="http://www.w3.org/2000/svg"
   xmlns="http://www.w3.org/2000/svg"
   xmlns:sodipodi="http://sodipodi.sourceforge.net/DTD/sodipodi-0.dtd"
   xmlns:inkscape="http://www.inkscape.org/namespaces/inkscape"
   width="210mm"
   height="297mm"
   viewBox="0 0 744.09448819 1052.3622047"
   id="svg2"
   version="1.1"
   inkscape:version="0.91 r13725"
   inkscape:export-filename="/home/cjwest/Documents/cpsc4160/asgn3/tracker.start/images/tiefighter.png"
   inkscape:export-xdpi="90"
   inkscape:export-ydpi="90"
   sodipodi:docname="tiefighter.svg">
  <defs
     id="defs4" />
  <sodipodi:namedview
     id="base"
     pagecolor="#ffffff"
     bordercolor="#666666"
     borderopacity="1.0"
     inkscape:pageopacity="0.0"
     inkscape:pageshadow="2"
     inkscape:zoom="0.98994949"
     inkscape:cx="-10.268708"
     inkscape:cy="567.55359"
     inkscape:document-units="px"
     inkscape:current-layer="layer1"
     showgrid="false"
     inkscape:window-width="1855"
     inkscape:window-height="936"
     inkscape:window-x="65"
     inkscape:window-y="24"
     inkscape:window-maximized="1" />
  <metadata
     id="metadata7">
    <rdf:RDF>
      <cc:Work
         rdf:about="">
        <dc:format>image/svg+xml</dc:format>
        <dc:type
           rdf:resource="http://purl.org/dc/dcmitype/StillImage" />
        <dc:title></dc:title>
      </cc:Work>
    </rdf:RDF>
  </metadata>
  <g
     inkscape:label="Layer 1"
     inkscape:groupmode="layer"
     id="layer1">
    <rect
       style="fill:#ff00ff"
       id="rect3336"
       width="496.76465"
       height="312.28494"
       x="-158.07315"
       y="331.67404" />
    <path
       style="fill:#ac9393;fill-rule:evenodd;stroke:#000000;stroke-width:1px;stroke-linecap:butt;stroke-linejoin:miter;stroke-opacity:1"
       d="m -14.285714,378.07649 160.000004,-2.85714 8.57142,120 -11.42857,100 -157.142854,2.85714 -20,-100 z"
       id="path3338"
       inkscape:connector-curvature="0" />
    <path
       style="fill:#ac9393"
       id="path3342"
       sodipodi:type="arc"
       sodipodi:cx="63.387074"
       sodipodi:cy="489.45471"
       sodipodi:rx="18.435284"
       sodipodi:ry="17.425131"
       sodipodi:start="0"
       sodipodi:end="6.2720676"
       d="m 81.822357,489.45471 a 18.435284,17.425131 0 0 1 -18.384044,17.42507 18.435284,17.425131 0 0 1 -18.486238,-17.3282 18.435284,17.425131 0 0 1 18.281282,-17.52139 18.435284,17.425131 0 0 1 18.587861,17.2308 l -18.434144,0.19372 z" />
    <path
       style="fill:#ac9393"
       id="path3344"
       sodipodi:type="arc"
       sodipodi:cx="60.861691"
       sodipodi:cy="419.24908"
       sodipodi:rx="7.323606"
       sodipodi:ry="6.8185301"
       sodipodi:start="0"
       sodipodi:end="6.2720676"
       d="m 68.185297,419.24908 a 7.323606,6.8185301 0 0 1 -7.303251,6.81851 7.323606,6.8185301 0 0 1 -7.343848,-6.7806 7.323606,6.8185301 0 0 1 7.262427,-6.8562 7.323606,6.8185301 0 0 1 7.384219,6.74249 l -7.323153,0.0758 z" />
    <path
       style="fill:#ac9393"
       id="path3346"
       sodipodi:type="arc"
       sodipodi:cx="117.68277"
       sodipodi:cy="445.51306"
       sodipodi:rx="6.5659914"
       sodipodi:ry="5.3033009"
       sodipodi:start="0"
       sodipodi:end="6.2720676"
       d="m 124.24876,445.51306 a 6.5659914,5.3033009 0 0 1 -6.54774,5.30328 6.5659914,5.3033009 0 0 1 -6.58414,-5.2738 6.5659914,5.3033009 0 0 1 6.51114,-5.33259 6.5659914,5.3033009 0 0 1 6.62034,5.24415 l -6.56559,0.059 z" />
    <path
       style="fill:#ac9393"
       id="path3348"
       sodipodi:type="arc"
       sodipodi:cx="109.60155"
       sodipodi:cy="552.08417"
       sodipodi:rx="7.0710678"
       sodipodi:ry="6.8185296"
       sodipodi:start="0"
       sodipodi:end="6.2720676"
       d="m 116.67262,552.08417 a 7.0710678,6.8185296 0 0 1 -7.05142,6.8185 7.0710678,6.8185296 0 0 1 -7.09061,-6.7806 7.0710678,6.8185296 0 0 1 7.012,-6.8562 7.0710678,6.8185296 0 0 1 7.12959,6.74249 l -7.07063,0.0758 z" />
    <path
       style="fill:#ac9393"
       id="path3350"
       sodipodi:type="arc"
       sodipodi:cx="61.366768"
       sodipodi:cy="569.00415"
       sodipodi:rx="8.8388348"
       sodipodi:ry="8.0812206"
       sodipodi:start="0"
       sodipodi:end="6.2720676"
       d="m 70.205603,569.00415 a 8.8388348,8.0812206 0 0 1 -8.814268,8.08119 8.8388348,8.0812206 0 0 1 -8.863265,-8.03627 8.8388348,8.0812206 0 0 1 8.764998,-8.12586 8.8388348,8.0812206 0 0 1 8.911988,7.9911 l -8.838288,0.0898 z" />
    <path
       style="fill:#ac9393"
       id="path3352"
       sodipodi:type="arc"
       sodipodi:cx="13.384521"
       sodipodi:cy="550.06384"
       sodipodi:rx="7.323606"
       sodipodi:ry="6.8185296"
       sodipodi:start="0"
       sodipodi:end="6.2720676"
       d="m 20.708127,550.06384 a 7.323606,6.8185296 0 0 1 -7.303251,6.81851 7.323606,6.8185296 0 0 1 -7.3438483,-6.7806 7.323606,6.8185296 0 0 1 7.2624273,-6.8562 7.323606,6.8185296 0 0 1 7.384219,6.74249 l -7.323153,0.0758 z" />
    <path
       style="fill:#ac9393"
       id="path3354"
       sodipodi:type="arc"
       sodipodi:cx="6.3134537"
       sodipodi:cy="445.008"
       sodipodi:rx="7.323606"
       sodipodi:ry="6.8185296"
       sodipodi:start="0"
       sodipodi:end="6.2720676"
       d="m 13.63706,445.008 a 7.323606,6.8185296 0 0 1 -7.3032509,6.8185 7.323606,6.8185296 0 0 1 -7.3438483,-6.7806 7.323606,6.8185296 0 0 1 7.2624273,-6.8562 7.323606,6.8185296 0 0 1 7.3842189,6.74249 l -7.3231533,0.0758 z" />
    <path
       style="fill:#ac9393"
       d="M 29.386438,467.2749 C 19.941512,459.63888 11.698746,452.97541 11.069181,452.4672 l -1.1446645,-0.92402 1.4611025,-1.46111 1.461102,-1.4611 17.61377,14.07702 c 9.687573,7.74236 17.885293,14.34488 18.217155,14.67226 0.466626,0.46033 0.294908,0.95711 -0.757614,2.19179 l -1.361,1.59654 -17.172594,-13.88368 z"
       id="path3384"
       inkscape:connector-curvature="0" />
    <path
       style="fill:#ac9393"
       d="m 58.737785,468.55528 c -0.161172,-2.04698 -0.525456,-10.76759 -0.809518,-19.37914 -0.284063,-8.61155 -0.64927,-17.53466 -0.811573,-19.82913 l -0.295094,-4.17177 1.341318,0.50996 c 0.737726,0.28049 1.874331,0.50997 2.525789,0.50997 1.123707,0 1.199169,0.21376 1.471002,4.16688 0.453447,6.59423 1.400127,40.87252 1.136088,41.13656 -0.131098,0.1311 -1.144348,0.35988 -2.251666,0.5084 l -2.013305,0.27004 -0.293041,-3.72177 z"
       id="path3386"
       inkscape:connector-curvature="0" />
    <path
       style="fill:#ac9393"
       d=""
       id="path3388"
       inkscape:connector-curvature="0" />
    <path
       style="fill:#ac9393"
       d="m 79.47242,480.61175 c -0.855706,-1.49098 -0.855002,-1.59377 0.01684,-2.45835 0.500437,-0.49626 7.942349,-7.4598 16.537581,-15.47452 15.627273,-14.57184 15.627723,-14.5722 16.637763,-13.56216 1.01005,1.01005 1.00977,1.01037 -10.32439,12.03409 -6.233957,6.06321 -13.728528,13.27244 -16.654604,16.02051 l -5.320137,4.99648 -0.893049,-1.55605 z"
       id="path3390"
       inkscape:connector-curvature="0" />
    <path
       style="fill:#ac9393"
       d="m 99.208002,542.24785 c -10.325965,-13.98327 -26.701987,-36.53943 -26.791559,-36.9024 -0.05419,-0.21958 0.583332,-0.82552 1.416707,-1.34652 l 1.515229,-0.94729 12.879445,18.22617 c 7.083695,10.0244 13.933696,19.72171 15.222226,21.54958 l 2.34278,3.3234 -1.19022,0.89529 -1.19023,0.89529 -4.204378,-5.69352 z"
       id="path3392"
       inkscape:connector-curvature="0" />
    <path
       style="fill:#ac9393"
       d="m 58.102329,550.79193 c 0.175656,-5.60834 0.467194,-17.84182 0.647864,-27.1855 l 0.32849,-16.98852 2.073933,0.26422 c 1.140663,0.14533 2.125728,0.30369 2.189034,0.35193 0.06331,0.0482 -0.03152,12.11985 -0.210734,26.82582 l -0.325835,26.73812 -2.511063,0.0955 -2.511063,0.0955 0.319374,-10.19699 z"
       id="path3394"
       inkscape:connector-curvature="0" />
    <path
       style="fill:#ac9393"
       d="M 17.435648,544.23859 16.09146,543.12033 29.2062,526.20027 c 7.213107,-9.30603 14.584168,-18.79865 16.380136,-21.09471 l 3.265396,-4.17466 1.5053,1.11292 c 0.827915,0.6121 1.505301,1.31323 1.505301,1.55807 0,0.59591 -32.282401,41.79632 -32.731148,41.77312 -0.193242,-0.01 -0.956233,-0.52138 -1.695537,-1.13642 z"
       id="path3396"
       inkscape:connector-curvature="0" />
    <path
       style="fill:#ac9393"
       d="m -32.308215,491.07583 c 0.182729,-1.33315 0.388077,-2.47024 0.456329,-2.52687 0.06825,-0.0566 17.340883,-0.26646 38.383623,-0.46628 l 38.259528,-0.3633 0,2.25868 0,2.25868 -10.732871,0.30963 c -5.903079,0.17029 -23.325214,0.45446 -38.7158566,0.63149 l -27.9829854,0.32188 0.332233,-2.42391 z"
       id="path3410"
       inkscape:connector-curvature="0" />
    <path
       style="fill:#ac9393"
       d="m 81.914371,489.71285 0,-2.25495 35.355339,-0.27274 c 19.44544,-0.15001 35.38201,-0.24024 35.4146,-0.20052 0.0326,0.0397 0.20887,0.90062 0.39173,1.91311 l 0.33245,1.84088 -7.21025,0.29982 c -3.96564,0.1649 -20.05181,0.44146 -35.74706,0.61458 l -28.536809,0.31477 0,-2.25495 z"
       id="path3412"
       inkscape:connector-curvature="0" />
    <path
       style="fill:#241c1c"
       d="m -13.835853,597.17941 c -0.0645,-0.18932 -4.554433,-22.56126 -9.977631,-49.71542 -9.679733,-48.4668 -9.855315,-49.39977 -9.584898,-50.93024 l 0.275464,-1.55902 1.807324,-0.13426 c 0.994029,-0.0738 18.001332,-0.31187 37.7940089,-0.52895 19.7926761,-0.21709 36.6475691,-0.43938 37.4553171,-0.49398 1.20286,-0.0813 1.492832,-0.0234 1.602342,0.32021 0.466888,1.46483 1.249892,3.21507 1.889544,4.2237 l 0.742174,1.17029 -1.336119,1.72815 c -0.734863,0.95048 -8.325109,10.75435 -16.867211,21.78638 l -15.531096,20.05824 -1.666645,0.123 c -5.1505207,0.38009 -8.222228,5.33704 -6.0281211,9.72784 1.2674334,2.53636 3.6642781,3.9517 6.6846141,3.94729 2.347996,-0.003 4.051194,-0.7474 5.564579,-2.43065 1.528876,-1.70048 2.073762,-3.51153 1.649097,-5.48114 -0.166089,-0.77033 -0.320587,-1.62788 -0.343331,-1.90567 -0.02636,-0.32206 5.941164,-8.14624 16.468302,-21.59201 9.08031,-11.59782 16.534124,-21.11848 16.56403,-21.15704 0.02991,-0.0386 0.890881,0.33078 1.913274,0.82075 1.022393,0.48997 2.004156,0.89085 2.181695,0.89085 0.403538,0 0.422244,-2.01456 -0.275984,29.72544 l -0.573357,26.06364 -1.442152,1.38568 c -1.955974,1.87937 -2.555497,3.24868 -2.554083,5.83351 0.0013,2.48995 0.700208,4.01368 2.641236,5.75884 1.765709,1.58752 3.623912,2.26868 6.18894,2.26868 3.637867,0 6.640967,-1.77815 8.124621,-4.81063 1.850143,-3.78155 0.02997,-8.54654 -3.994067,-10.45598 l -1.242531,-0.5896 0.155248,-26.89531 c 0.08539,-14.79242 0.19248,-27.02011 0.237982,-27.17264 0.04551,-0.15253 0.746364,-0.3472 1.557466,-0.43259 0.811104,-0.0854 2.146821,-0.38704 2.968265,-0.67034 0.821441,-0.2833 1.512668,-0.48638 1.536063,-0.45129 0.02338,0.0351 7.249436,9.93261 16.05787,21.9945 8.808437,12.0619 15.975423,22.06241 15.926633,22.22336 -0.0488,0.16095 -0.14837,0.93035 -0.22131,1.70978 -0.59854,6.39652 7.46797,9.9272 12.19405,5.33729 2.67611,-2.59901 2.65043,-7.18258 -0.0543,-9.69397 -1.66788,-1.54864 -5.01326,-2.4298 -6.8259,-1.79791 l -0.72432,0.2525 -15.01919,-21.20711 c -8.260553,-11.66391 -15.18058,-21.46771 -15.377841,-21.78623 -0.337423,-0.54482 -0.280479,-0.66658 0.961921,-2.05676 1.310152,-1.46599 3.563613,-5.52122 3.563613,-6.41292 0,-0.25547 0.142053,-0.55375 0.315673,-0.66284 0.265367,-0.16674 53.905844,-1.02217 67.521414,-1.07681 l 4.32375,-0.0174 0.16132,1.21605 c 0.1124,0.84735 -1.56661,16.33102 -5.53783,51.06931 -3.13453,27.4193 -5.72102,49.86987 -5.74776,49.89015 -0.0267,0.0203 -10.61733,0.22612 -23.53465,0.45742 -12.91733,0.2313 -29.2818,0.53007 -36.365495,0.66393 -7.083695,0.13386 -28.618884,0.52289 -47.855977,0.86451 -19.237092,0.34162 -37.9582774,0.69548 -41.60263,0.78635 -5.477538,0.13659 -6.646427,0.10557 -6.743371,-0.17898 z"
       id="path3414"
       inkscape:connector-curvature="0" />
    <path
       style="fill:#241c1c"
       d="m -22.821957,433.0999 c 4.957383,-29.74352 9.089578,-54.15529 9.182657,-54.24837 0.09308,-0.0931 5.2542642,-0.25934 11.469299,-0.36947 6.2150367,-0.11014 17.720848,-0.31659 25.568471,-0.45878 7.847623,-0.14219 24.439378,-0.43932 36.870568,-0.66029 12.43119,-0.22097 36.580149,-0.65416 53.664352,-0.96266 17.08421,-0.30849 31.09749,-0.53894 31.14063,-0.51211 0.10619,0.0661 7.92037,109.49259 7.82538,109.58339 -0.084,0.0803 -57.997827,0.62935 -66.145425,0.62707 l -5.208599,-0.001 -0.151758,-0.69448 c -0.08347,-0.38197 -0.217844,-0.92446 -0.298616,-1.20555 -0.120547,-0.4195 2.918101,-3.4738 16.958969,-17.04633 10.557099,-10.20496 17.257799,-16.5035 17.502779,-16.45232 0.21832,0.0456 1.19244,0.0948 2.16471,0.10921 3.68557,0.0548 6.71041,-2.43168 6.68531,-5.49544 -0.007,-0.83561 -0.87333,-2.47325 -1.77027,-3.3458 -2.05252,-1.99669 -5.93708,-2.40155 -8.61291,-0.89767 -1.84455,1.03667 -2.77334,2.39776 -2.96827,4.34978 l -0.15239,1.52609 -16.3125,15.21997 c -8.971874,8.37099 -16.485161,15.36307 -16.696192,15.53797 -0.321072,0.2661 -0.564476,0.15117 -1.491435,-0.70425 -2.624189,-2.42163 -5.721772,-3.96962 -9.382789,-4.68895 l -2.20529,-0.4333 -0.01823,-1.66516 c -0.01003,-0.91585 -0.322549,-11.29193 -0.69448,-23.05798 l -0.676246,-21.3928 0.965655,-0.43537 c 1.444367,-0.6512 3.127619,-2.66258 3.606353,-4.30936 1.689203,-5.81066 -5.201631,-10.77594 -10.757965,-7.75181 -3.983984,2.16836 -4.933989,6.67746 -2.17495,10.32318 0.576363,0.76159 0.582164,0.85324 1.383283,21.85173 0.44247,11.59781 0.875146,22.53587 0.961501,24.30679 0.129992,2.66577 0.09619,3.2199 -0.196429,3.22006 -0.632063,2.6e-4 -3.566316,1.51077 -5.200826,2.67713 -0.970878,0.6928 -1.718517,1.06351 -1.90962,0.94685 -0.172734,-0.10544 -8.517021,-6.75443 -18.542858,-14.77554 l -18.228796,-14.58382 0.258213,-0.93518 c 0.579529,-2.09887 -0.568595,-5.07098 -2.540582,-6.5767 -4.0067599,-3.05939 -10.20532615,-1.4018 -11.75395819,3.14319 -0.61431671,1.80291 -0.50490201,3.28179 0.37274629,5.03812 1.26060977,2.52271 3.6356274,3.92829 6.7018722,3.96631 l 1.7850229,0.0221 19.0558758,15.36186 19.055874,15.36185 -0.606051,1.84438 -0.606051,1.84437 -3.567331,0.14563 c -1.962032,0.0801 -15.045189,0.20532 -29.073683,0.27826 -14.0284933,0.0729 -29.723322,0.20509 -34.877396,0.29369 l -9.371045,0.16108 9.013423,-54.07913 z"
       id="path3416"
       inkscape:connector-curvature="0" />
    <path
       style="fill:#ac9393"
       d="m -33.180348,494.68314 c 0.0382,-0.13211 0.339519,-1.888 0.669603,-3.90199 l 0.600153,-3.66181 3.480318,0 c 1.914175,0 11.49209,-0.0718 21.2842564,-0.15945 9.7921663,-0.0877 24.6792896,-0.22093 33.0824956,-0.29607 8.403207,-0.0751 16.176473,-0.17384 17.273926,-0.21935 1.956208,-0.0811 1.993795,-0.0778 1.915254,0.1698 -0.04406,0.13889 -0.11011,1.16167 -0.146774,2.27284 -0.06353,1.92532 0.008,2.72221 0.413747,4.60882 l 0.06789,0.31567 -3.448568,0.0307 c -8.446685,0.0753 -57.88911,0.67526 -65.067873,0.78964 -4.375223,0.0697 -8.45871,0.16378 -9.074415,0.20905 -1.060094,0.078 -1.11578,0.0696 -1.050013,-0.15787 z m 27.6758283,-1.44243 c 22.5824347,-0.28693 33.9553267,-0.48849 45.0149227,-0.79779 l 5.240167,-0.14655 0.03441,-2.30441 0.03442,-2.30441 -1.549644,6e-5 c -3.799778,1.5e-4 -59.033265,0.56739 -69.208367,0.71076 -5.859021,0.0826 -5.914058,0.0858 -6.012713,0.34916 -0.05476,0.14622 -0.221692,1.11816 -0.370957,2.15988 -0.149266,1.04172 -0.299159,2.05917 -0.333095,2.261 l -0.0617,0.36696 8.744921,-0.0856 c 4.809705,-0.0471 13.120143,-0.14116 18.4676383,-0.2091 z"
       id="path3418"
       inkscape:connector-curvature="0" />
    <path
       style="fill:#ac9393"
       d="m 152.97787,488.14255 -0.23783,-1.24964 -13.33609,0.0892 c -7.33486,0.049 -23.30676,0.16773 -35.49311,0.26374 -12.186361,0.096 -22.164661,0.16364 -22.174004,0.1503 -0.0093,-0.0133 -0.05231,-0.29415 -0.09549,-0.62403 l -0.07851,-0.59978 4.196031,-6.5e-4 c 6.930854,-0.001 55.971705,-0.45526 62.753315,-0.58118 l 4.38785,-0.0815 0.0166,-0.52066 c 0.009,-0.28636 0.0942,0.4453 0.18909,1.62592 0.21556,2.68274 0.17778,3.13426 -0.12787,1.52828 z"
       id="path3420"
       inkscape:connector-curvature="0" />
    <path
       style="fill:#ac9393"
       d="m 81.441709,493.34382 c 0.02644,-0.43349 0.34615,-1.89299 0.356725,-1.62847 l 0.01211,0.30286 8.175922,-0.0851 c 34.209917,-0.35585 51.005197,-0.63156 59.600747,-0.97838 2.03232,-0.082 3.7199,-0.12431 3.75019,-0.094 0.0303,0.0303 0.0908,0.45093 0.13451,0.93475 0.0537,0.59439 0.039,0.82188 -0.0453,0.70145 -0.10638,-0.15198 -1.42392,-0.1656 -8.94354,-0.0924 -18.94215,0.18434 -61.754574,0.89261 -62.640962,1.03631 -0.288595,0.0468 -0.407414,0.018 -0.400399,-0.097 z"
       id="path3422"
       inkscape:connector-curvature="0" />
    <path
       style="fill:#ac9393"
       d="m 78.554863,479.50939 c -0.288376,-0.39809 -0.702112,-0.93689 -0.919412,-1.19732 -0.391162,-0.46879 -0.392144,-0.4735 -0.09874,-0.47351 0.200714,-10e-6 0.744593,-0.41534 1.685312,-1.28698 0.763928,-0.70782 6.275573,-5.84014 12.2481,-11.40514 21.182225,-19.73689 19.437485,-18.07403 19.512735,-18.59693 l 0.0673,-0.46762 0.21415,0.69448 c 0.11779,0.38197 0.38514,0.95007 0.59413,1.26245 l 0.37998,0.56796 -0.28344,0.0758 c -1.34669,0.36016 -2.28559,1.19398 -20.737393,18.41653 -10.994057,10.26163 -12.312723,11.52216 -12.39452,11.84806 -0.04484,0.17865 0.01152,0.49271 0.134799,0.75124 0.324147,0.67975 0.175982,0.61025 -0.403003,-0.18903 z"
       id="path3424"
       inkscape:connector-curvature="0" />
    <path
       style="fill:#ac9393"
       d="m 80.608987,483.15386 c -0.206391,-0.52746 -0.392596,-0.99578 -0.413789,-1.04072 -0.02119,-0.0449 0.04573,-0.0733 0.148712,-0.0631 0.343811,0.0341 8.79821,-7.99776 24.19506,-22.98581 7.64164,-7.43874 8.7334,-8.6541 8.52388,-9.48888 -0.0784,-0.31246 -0.0706,-0.31889 0.14765,-0.12201 0.323,0.29131 2.06427,1.11011 2.37345,1.11608 0.20066,0.004 0.1741,0.0421 -0.1227,0.17652 -0.78401,0.3551 -9.62506,8.74203 -25.506354,24.1962 -5.647608,5.49571 -7.947225,7.82753 -8.721001,8.84309 l -0.249653,0.32767 -0.375255,-0.95901 z"
       id="path3426"
       inkscape:connector-curvature="0" />
    <path
       style="fill:#ac9393"
       d="m 62.332382,471.83891 c 0.433415,-0.0942 0.845367,-0.20664 0.915451,-0.24995 0.232044,-0.14341 0.13741,-6.75782 -0.31616,-22.0978 -0.488963,-16.537 -0.77305,-21.8718 -1.216543,-22.84516 -0.144028,-0.31611 -0.273427,-0.38053 -0.991523,-0.49364 -0.17362,-0.0274 0.02525,-0.0583 0.441941,-0.0689 0.416688,-0.0105 1.07714,-0.0944 1.46767,-0.1863 l 0.710055,-0.16714 0.08283,2.03158 c 0.08139,1.99631 0.940255,29.49884 1.222741,39.15468 0.09929,3.39384 0.188668,4.95333 0.287556,5.01726 0.07892,0.051 -0.652007,0.0891 -1.624278,0.0847 l -1.767767,-0.008 0.788026,-0.1712 0,0 z"
       id="path3428"
       inkscape:connector-curvature="0" />
    <path
       style="fill:#ac9393"
       d="m 57.501385,472.54601 c 0.03991,-0.18171 -0.01427,-2.37505 -0.120408,-4.87409 -0.106135,-2.49903 -0.419464,-10.42468 -0.696286,-17.61255 -0.819614,-21.28178 -0.962441,-24.30013 -1.218897,-25.75889 l -0.0777,-0.44194 0.363344,0.32962 c 0.199839,0.18129 0.580597,0.47348 0.846129,0.6493 0.265531,0.17582 0.415706,0.34203 0.33372,0.36936 -0.113613,0.0379 -0.100769,0.78436 0.05401,3.13878 0.251415,3.82451 0.485477,9.29955 0.89589,20.95616 0.467366,13.2742 0.70203,18.30421 1.029101,22.05875 0.07432,0.8531 0.09869,0.91103 0.398438,0.94702 0.196041,0.0235 -0.105154,0.14072 -0.780313,0.3036 l -1.099593,0.26527 0.07256,-0.33039 z"
       id="path3430"
       inkscape:connector-curvature="0" />
    <path
       style="fill:#ac9393"
       d="m 48.792727,478.53305 c 0.289373,-0.75103 0.242714,-0.87775 -0.590018,-1.60242 -2.263676,-1.96991 -35.220856,-28.30231 -35.422691,-28.30231 -0.206878,0 -0.22481,0.0657 0.188381,-0.6899 l 0.353308,-0.64608 15.345944,12.27422 c 19.78784,15.82701 21.348795,17.06112 21.575623,17.05795 0.104172,-0.001 0.331456,-0.0457 0.505076,-0.0983 0.289783,-0.0878 0.282515,-0.0686 -0.08861,0.23392 -0.222352,0.18127 -0.755288,0.71115 -1.184299,1.17752 -0.429012,0.46636 -0.736236,0.73429 -0.682719,0.5954 z"
       id="path3432"
       inkscape:connector-curvature="0" />
    <path
       style="fill:#ac9393"
       d="M 27.262811,467.21611 C 13.062213,455.7681 8.0875656,451.82444 7.8374338,451.81662 c -0.203702,-0.006 -0.04919,-0.0801 0.391988,-0.18697 0.4005251,-0.0971 1.0740039,-0.34801 1.4966198,-0.55769 0.4226154,-0.20969 0.8016024,-0.38124 0.8421924,-0.38124 0.04059,0 -0.09149,0.17253 -0.29352,0.3834 -0.267018,0.2787 -0.3338087,0.43135 -0.244595,0.55899 0.172153,0.24631 36.289031,29.41719 36.476795,29.46157 0.08436,0.0199 0.39751,-0.25326 0.695887,-0.60711 0.564304,-0.66923 0.858132,-0.78271 0.414888,-0.16023 -0.139713,0.19621 -0.481659,0.78897 -0.759882,1.31725 l -0.505859,0.9605 -19.089137,-15.38898 z"
       id="path3434"
       inkscape:connector-curvature="0" />
    <path
       style="fill:#ac9393"
       d="m 16.403164,543.8004 c -0.243068,-0.1063 -0.8681,-0.29884 -1.38896,-0.42786 -0.52086,-0.12902 -0.850439,-0.23869 -0.732397,-0.24372 0.13081,-0.006 6.711998,-8.40144 16.852901,-21.49987 9.151055,-11.8199 16.753731,-21.62199 16.894838,-21.78242 l 0.256557,-0.29169 0.915175,1.07429 c 0.503345,0.59086 0.880859,1.07429 0.838919,1.07429 -0.04194,0 -0.291482,-0.17046 -0.554537,-0.37881 -0.263055,-0.20834 -0.533765,-0.3788 -0.601575,-0.3788 -0.06781,0 -4.615304,5.78154 -10.10554,12.84787 -5.490236,7.06634 -12.851575,16.54125 -16.358533,21.05537 l -6.376285,8.20749 0.51163,0.47351 c 0.555887,0.51447 0.526277,0.56706 -0.152193,0.27035 z"
       id="path3436"
       inkscape:connector-curvature="0" />
    <path
       style="fill:#ac9393"
       d="m 19.949622,546.96545 c -0.167373,-0.3155 -0.524387,-0.82365 -0.793364,-1.12923 -0.459871,-0.52244 -0.471188,-0.55413 -0.189671,-0.53121 0.381186,0.031 0.801175,-0.45832 6.210409,-7.2361 11.080038,-13.88331 26.176054,-33.34176 26.61615,-34.30766 0.110487,-0.24249 0.08275,-0.34637 -0.162085,-0.60699 -0.398153,-0.42381 -0.204035,-0.39781 0.36181,0.0485 0.253061,0.19959 0.741136,0.54051 1.084611,0.75761 0.422265,0.2669 0.544935,0.3961 0.378807,0.39897 -0.236219,0.004 -1.182514,1.19812 -17.850459,22.52394 -7.632004,9.76477 -13.741518,17.73494 -14.911334,19.45258 -0.235103,0.3452 -0.416741,0.75715 -0.40364,0.91545 0.0131,0.1583 0.01015,0.28781 -0.0066,0.28781 -0.0167,0 -0.167311,-0.25814 -0.334684,-0.57364 z"
       id="path3438"
       inkscape:connector-curvature="0" />
    <path
       style="fill:#ac9393"
       d="m 56.388898,562.02847 c 0.249683,-0.27819 0.264953,-0.73813 0.732575,-22.06552 0.262667,-11.97978 0.506356,-24.49462 0.541531,-27.81077 0.03518,-3.31614 0.09896,-6.02805 0.141752,-6.02646 0.285327,0.0106 1.789651,0.48169 1.56718,0.4908 -0.214136,0.009 -0.292412,0.1061 -0.339167,0.42177 -0.03343,0.2257 -0.123552,4.16056 -0.200269,8.74413 -0.141285,8.44133 -0.439308,22.705 -0.568542,27.21098 -0.03884,1.35424 -0.153548,5.44536 -0.254906,9.09138 -0.101359,3.64602 -0.215049,7.15472 -0.252644,7.79711 l -0.06836,1.16799 0.79173,0.002 0.79173,0.002 -1.026216,0.35723 c -0.564419,0.19648 -1.224568,0.47983 -1.466998,0.62966 -0.567369,0.35065 -0.710756,0.34635 -0.3894,-0.0117 z"
       id="path3440"
       inkscape:connector-curvature="0" />
    <path
       style="fill:#ac9393"
       d="m 63.69093,561.17787 c -0.208344,-0.056 -0.546307,-0.13999 -0.751029,-0.18669 -0.209867,-0.0479 -0.311079,-0.12271 -0.232044,-0.17155 0.151153,-0.0934 0.475154,-22.14886 0.627596,-42.72197 l 0.08109,-10.94301 -0.620419,-0.0839 c -1.040282,-0.14068 -0.934565,-0.17004 0.642272,-0.17841 0.886934,-0.005 1.444425,0.0368 1.344474,0.10017 -0.184235,0.11675 -0.280574,8.28202 -0.466846,39.56799 -0.04827,8.10805 -0.123436,14.73679 -0.167027,14.73052 -0.04359,-0.006 -0.249719,-0.0572 -0.458063,-0.11316 z"
       id="path3442"
       inkscape:connector-curvature="0" />
    <path
       style="fill:#ac9393"
       d="m 102.55628,549.44636 c -0.58118,-1.00746 -7.149024,-10.14789 -16.703911,-23.24674 -13.458548,-18.4504 -14.9554,-20.4844 -15.121761,-20.54824 -0.137768,-0.0529 1.967443,-1.17004 2.204834,-1.17004 0.03229,0 -0.08877,0.17527 -0.269028,0.3895 -0.180258,0.21422 -0.289935,0.45571 -0.243726,0.53664 0.743921,1.3029 14.994571,20.91547 29.902112,41.15303 0.54994,0.74656 1.05555,1.35739 1.12358,1.35739 0.068,0 0.22795,-0.0944 0.35538,-0.20968 0.36863,-0.3336 0.3839,-0.12813 0.0256,0.34499 -0.1803,0.23809 -0.48143,0.75137 -0.66918,1.14061 l -0.34137,0.70771 -0.26257,-0.45517 z"
       id="path3444"
       inkscape:connector-curvature="0" />
    <path
       style="fill:#ac9393"
       d="m 105.7518,546.07604 c -0.0615,-0.16021 -28.695145,-40.7561 -30.021815,-42.56396 l -0.479624,-0.65359 0.62844,-0.52616 c 0.611836,-0.51226 0.628439,-0.51788 0.628439,-0.2129 0,0.1723 0.209557,0.61795 0.465683,0.99035 1.269756,1.84617 13.036683,18.49609 25.835467,36.55657 2.27133,3.20509 4.1297,5.87857 4.1297,5.94105 0,0.0625 -0.25081,0.23545 -0.55736,0.38439 -0.47186,0.22924 -0.56833,0.24217 -0.62893,0.0842 z"
       id="path3446"
       inkscape:connector-curvature="0" />
    <path
       style="fill:#000000"
       d="m -13.714675,596.79076 c -0.222901,-0.62214 -16.657265,-82.86237 -18.200944,-91.08048 -0.692751,-3.68802 -1.259548,-7.56778 -1.259548,-8.6217 l 0,-1.91621 6.875,-0.21712 c 8.260047,-0.26086 71.377657,-1.02508 71.496629,-0.86567 0.37685,0.50494 2.482728,5.19559 2.465775,5.49229 -0.01977,0.34597 -8.649414,11.59262 -26.563882,34.61961 l -6.668375,8.57142 -2.214229,0.41838 c -5.6858964,1.07435 -8.0259,6.21694 -4.9447321,10.86697 1.5863786,2.39412 5.7461861,3.54448 8.9699251,2.48055 1.449986,-0.47854 4.02615,-3.1269 4.3685,-4.49094 0.130564,-0.5202 0.152114,-1.88625 0.04789,-3.03565 l -0.189496,-2.08982 3.602796,-4.75331 c 5.597543,-7.38506 27.737661,-35.72347 28.654257,-36.67624 l 0.819168,-0.8515 1.997532,0.82793 1.997529,0.82793 0.0039,2.34499 c 0.0021,1.28975 -0.255182,13.75571 -0.571829,27.70214 l -0.575721,25.35715 -1.576122,1.68657 c -1.941396,2.07745 -2.281817,2.93771 -2.274346,5.74739 0.0072,2.70158 0.923136,4.51247 3.136189,6.20042 2.979332,2.27241 7.084282,2.49011 10.519925,0.55791 2.736757,-1.53915 4.021529,-3.73683 4.001304,-6.84448 -0.0098,-1.50421 -0.234564,-2.7589 -0.625564,-3.49189 -0.781111,-1.4643 -2.862865,-3.48868 -4.125297,-4.0116 l -0.980664,-0.4062 0.139989,-26.68335 c 0.102468,-19.53144 0.250414,-26.78832 0.551975,-27.07502 0.226589,-0.21541 1.376268,-0.59751 2.554839,-0.8491 1.178572,-0.25159 2.325465,-0.52748 2.54865,-0.61309 0.22319,-0.0856 4.896833,6.00184 10.385872,13.52767 10.159357,13.92914 20.763158,28.60738 21.366318,29.57619 0.18344,0.29465 0.35025,1.5 0.37069,2.67858 0.0716,4.12732 2.53705,6.92664 6.38137,7.24545 1.04653,0.0868 2.48736,-0.0351 3.20186,-0.27095 4.89538,-1.61562 6.39845,-7.77365 2.81148,-11.51853 -1.20057,-1.25342 -3.96994,-2.16826 -6.0604,-2.002 l -1.63745,0.13023 -5.96736,-8.39925 c -14.77898,-20.8019 -24.293887,-34.38247 -24.293887,-34.67452 0,-0.17456 0.63455,-1.15576 1.410107,-2.18045 0.775561,-1.02469 1.860383,-2.85834 2.410715,-4.07478 l 1.000607,-2.2117 6.428571,-0.22212 c 7.462568,-0.25783 50.369237,-0.93095 59.250377,-0.92951 l 6.03609,9.8e-4 -0.21857,3.48215 c -0.33166,5.28396 -10.81043,97.91514 -11.11043,98.21515 -0.1107,0.11069 -27.19603,0.66732 -73.778895,1.51623 -11.491072,0.20941 -33.267858,0.61562 -48.392858,0.90268 -33.906257,0.64353 -33.373854,0.64226 -33.575222,0.0802 z"
       id="path3448"
       inkscape:connector-curvature="0" />
    <path
       style="fill:#000000"
       d="m -22.98948,435.18362 c 9.144992,-54.61405 9.351586,-55.81704 9.63426,-56.09971 0.185132,-0.18513 13.04001137,-0.48193 47.858625,-1.10496 79.356095,-1.41998 110.191165,-1.91951 110.322575,-1.78724 0.15061,0.15158 4.00769,52.85835 6.57124,89.79548 l 1.33848,19.28571 -15.90186,0.21854 c -8.74602,0.12019 -24.76259,0.24073 -35.59237,0.26786 l -19.690512,0.0493 -0.173646,-0.90838 c -0.152372,-0.79708 0.9255,-1.99058 8.797653,-9.74143 10.903675,-10.73566 16.308225,-15.95773 21.450615,-20.72635 l 3.9079,-3.62384 2.19665,0 c 3.02234,0 5.02914,-1.07632 6.18135,-3.31529 0.53846,-1.04633 0.77651,-1.96928 0.64405,-2.49705 -1.66031,-6.61519 -12.64524,-6.37173 -13.64609,0.30243 -0.24072,1.6052 -0.47725,1.8463 -15.825203,16.13085 -8.569457,7.97572 -16.01345,14.8967 -16.542204,15.37996 l -0.961371,0.87865 -1.841925,-1.46656 c -2.412539,-1.9209 -4.967364,-3.14527 -8.094261,-3.87911 l -2.539332,-0.59595 -0.2153,-4.6654 c -0.118411,-2.56596 -0.463932,-12.86182 -0.767821,-22.87967 -0.520433,-17.15643 -0.517018,-18.23503 0.05883,-18.57143 2.636678,-1.5403 4.07255,-3.79941 4.07255,-6.40749 0,-6.5264 -8.664286,-9.4344 -13.090257,-4.3935 -2.148036,2.44648 -2.351765,4.87422 -0.681608,8.12242 0.625593,1.21667 0.882922,2.47484 1.059168,5.17857 0.339886,5.21413 1.643307,38.75762 1.629461,41.93415 l -0.01182,2.7087 -2.041765,0.96539 c -1.122971,0.53096 -2.684621,1.36702 -3.470335,1.85792 l -1.428572,0.89254 -18.318589,-14.63198 -18.318593,-14.63199 0.222671,-1.18693 c 0.799325,-4.26078 -3.8861533,-8.67213 -8.4379425,-7.94427 -5.1858597,0.82926 -8.0585426,5.83161 -5.76842756,10.04487 0.6013925,1.10641 2.66277926,2.94544 3.76913106,3.36255 0.5529643,0.20848 1.7850786,0.37905 2.7380286,0.37905 l 1.7326357,0 14.0476857,11.30142 c 7.726229,6.21578 16.327543,13.13525 19.114039,15.37658 l 5.066354,4.07516 -0.488407,1.62285 c -0.268625,0.89257 -0.579239,1.71369 -0.690254,1.8247 -0.170618,0.17062 -47.615607,0.69844 -69.707282,0.77548 l -6.82465,0.0238 8.656444,-51.69643 z"
       id="path3450"
       inkscape:connector-curvature="0" />
  </g>
</svg>
